<svg xmlns="http://www.w3.org/2000/svg" viewBox="0 0 120 120" width="120" height="120">
  <circle cx="60" cy="60" r="58" fill="#ffe4e6" stroke="#f43f5e" stroke-width="4"/>
  <!-- Body / Clothes -->
  <path d="M26 112c2-25 18-36 34-36s32 11 34 36" fill="#e11d48"/>
  <circle cx="60" cy="82" r="7" fill="#fecdd3"/>
  <!-- Neck & Face -->
  <rect x="53" y="66" width="14" height="14" rx="3" fill="#fed7aa"/>
  <circle cx="60" cy="48" r="21" fill="#fed7aa"/>
  <!-- Beret / Hat -->
  <ellipse cx="60" cy="32" rx="26" ry="12" fill="#881337"/>
  <circle cx="60" cy="20" r="3" fill="#881337"/>
  <!-- Hair (Side curls) -->
  <path d="M37 46c-2 6-1 12 1 15 2-4 3-8 3-12z" fill="#451a03"/>
  <path d="M83 46c2 6 1 12-1 15-2-4-3-8-3-12z" fill="#451a03"/>
  <!-- Glasses -->
  <circle cx="51" cy="48" r="6.5" fill="none" stroke="#4c0519" stroke-width="2"/>
  <circle cx="69" cy="48" r="6.5" fill="none" stroke="#4c0519" stroke-width="2"/>
  <line x1="57.5" y1="48" x2="62.5" y2="48" stroke="#4c0519" stroke-width="2"/>
  <!-- Eyes & Smile -->
  <circle cx="51" cy="48" r="2" fill="#4c0519"/>
  <circle cx="69" cy="48" r="2" fill="#4c0519"/>
  <path d="M55 58 Q60 63 65 58" fill="none" stroke="#be123c" stroke-width="2" stroke-linecap="round"/>
</svg>
